<svg width="101" height="101" viewBox="0 0 101 101" fill="none" xmlns="http://www.w3.org/2000/svg">
<path fill-rule="evenodd" clip-rule="evenodd" d="M25.0189 28.6853H38.6577C44.8409 28.6853 50.1922 26.8017 50.1922 19.9107C50.1922 14.4432 45.4935 13.282 40.9757 13.282H28.2862L25.0189 28.6853ZM79.0297 65.5174H100.78L81.1516 79.1031L84.3256 100.511L67.3192 87.5908L44.4961 101L55.1674 78.3099C55.1674 78.3099 42.7552 65.3672 42.7648 65.3672C41.9305 64.2656 41.6516 61.4282 41.6516 60.2074C41.6516 58.664 41.7501 57.1008 41.8551 55.4357C41.9746 53.5386 42.1025 51.5094 42.1025 49.2271C42.1025 43.5943 39.6141 40.6488 33.5306 40.6488H22.1247L17.1583 63.8992H0L13.6452 0H45.9348C57.9339 0 67.0917 2.95191 67.0917 16.5638C67.0917 26.1451 62.3762 32.9511 51.9733 34.3801V34.5637C56.8649 35.7265 58.6974 39.0353 58.6974 45.2014C58.6974 47.6631 58.6225 49.8234 58.5521 51.8555C58.4896 53.6596 58.4306 55.3625 58.4306 57.0854C58.4306 59.2933 59.0044 62.9025 60.4496 65.3672H62.8335L75.5801 44.0744L79.0297 65.5174ZM76.3298 68.6424H90.7642L77.7508 77.6468L80.076 93.3458L67.5545 83.824L51.6581 93.1574L58.9352 77.7056L50.0868 68.4906H64.6345L73.8374 53.1175L76.3298 68.6424Z" fill="white"/>
</svg>
