<?xml version="1.0" standalone="no"?><!DOCTYPE svg PUBLIC "-//W3C//DTD SVG 1.1//EN" "http://www.w3.org/Graphics/SVG/1.1/DTD/svg11.dtd"><svg t="1703410981240" class="icon" viewBox="0 0 1024 1024" version="1.1" xmlns="http://www.w3.org/2000/svg" p-id="1466" xmlns:xlink="http://www.w3.org/1999/xlink" width="200" height="200"><path d="M896 0l128 0 0 128-128 0 0-128Z" fill="#ffffff" p-id="1467"></path><path d="M0 0l768 0 0 128-768 0 0-128Z" fill="#ffffff" p-id="1468"></path><path d="M896 448l128 0 0 128-128 0 0-128Z" fill="#ffffff" p-id="1469"></path><path d="M0 448l768 0 0 128-768 0 0-128Z" fill="#ffffff" p-id="1470"></path><path d="M896 896l128 0 0 128-128 0 0-128Z" fill="#ffffff" p-id="1471"></path><path d="M0 896l768 0 0 128-768 0 0-128Z" fill="#ffffff" p-id="1472"></path></svg>