<?xml version="1.0" standalone="no"?><!DOCTYPE svg PUBLIC "-//W3C//DTD SVG 1.1//EN" "http://www.w3.org/Graphics/SVG/1.1/DTD/svg11.dtd"><svg t="1703245683384" class="icon" viewBox="0 0 1024 1024" version="1.1" xmlns="http://www.w3.org/2000/svg" p-id="2206" xmlns:xlink="http://www.w3.org/1999/xlink" width="48" height="48"><path d="M832 46.933333a166.4 166.4 0 0 1 166.4 166.4v448a166.4 166.4 0 0 1-166.4 166.4H591.509333l-252.458666 144.277334c-24.725333 14.122667-55.253333-2.624-57.344-30.336L281.6 938.666667v-110.933334H192a166.4 166.4 0 0 1-166.314667-161.109333L25.6 661.333333V213.333333A166.4 166.4 0 0 1 192 46.933333z m0 76.8H192A89.6 89.6 0 0 0 102.4 213.333333v448A89.6 89.6 0 0 0 192 750.933333h128a38.4 38.4 0 0 1 38.4 38.4v83.157334l203.882667-116.48a38.4 38.4 0 0 1 15.061333-4.864l3.989333-0.213334H832a89.6 89.6 0 0 0 89.6-89.6V213.333333A89.6 89.6 0 0 0 832 123.733333z m-76.650667 266.666667l25.301334 72.533333c-84.522667 29.44-175.36 44.8-268.650667 44.8-88.106667 0-174.037333-13.674667-254.506667-40.021333l-14.144-4.778667 25.301334-72.533333c76.373333 26.624 158.656 40.533333 243.349333 40.533333 79.701333 0 157.290667-12.309333 229.824-35.968l13.525333-4.565333z" fill="#ffffff" p-id="2207"></path></svg>