<?xml version="1.0" standalone="no"?><!DOCTYPE svg PUBLIC "-//W3C//DTD SVG 1.1//EN" "http://www.w3.org/Graphics/SVG/1.1/DTD/svg11.dtd"><svg t="1703676665025" class="icon" viewBox="0 0 1024 1024" version="1.1" xmlns="http://www.w3.org/2000/svg" p-id="3208" width="32" height="32" xmlns:xlink="http://www.w3.org/1999/xlink"><path d="M700 357.3H324c-17.6 0-32-14.4-32-32s14.4-32 32-32h376c17.6 0 32 14.4 32 32s-14.4 32-32 32zM512 400.5c-9 0-17.4 4.4-22.6 11.7L296.8 687.4c-5.9 8.4-6.5 19.4-1.9 28.5 4.7 9.1 14.1 14.8 24.4 14.8h385.3c10.3 0 19.6-5.7 24.4-14.8 4.7-9.1 4-20.1-1.9-28.5L534.5 412.3a27.29 27.29 0 0 0-22.5-11.8z" fill="#2c2c2c" p-id="3209"></path></svg>