<svg width="143" height="32" viewBox="0 0 143 32" fill="none" xmlns="http://www.w3.org/2000/svg">
<path d="M58.0259 0.909668H50.3576C49.7572 0.909668 49.0676 1.01892 49.0676 1.87431C49.0676 2.5267 49.4814 2.75927 49.8659 2.75927C50.0633 2.75927 50.2152 2.67716 50.3775 2.59106C50.609 2.46505 50.901 2.30793 51.5073 2.30793C52.6907 2.30793 53.2888 2.94964 53.2888 4.21194V20.2351C53.2888 23.6864 52.2845 27.7972 47.4911 27.7972C45.318 27.7972 43.6826 27.1034 42.6394 25.7331C41.6848 24.4819 41.2014 22.6589 41.2014 20.3204V4.21194C41.2014 2.94964 41.8 2.30793 42.9822 2.30793C43.5907 2.30793 43.8823 2.46505 44.1152 2.59164C44.2765 2.67716 44.4257 2.75927 44.622 2.75927C45.0087 2.75927 45.4246 2.5267 45.4246 1.87431C45.4246 1.01892 44.7324 0.909668 44.131 0.909668H31.0964C30.4934 0.909668 29.8017 1.01892 29.8017 1.87431C29.8017 2.5267 30.2166 2.75927 30.6033 2.75927C30.7985 2.75927 30.9515 2.67716 31.1127 2.59164C31.343 2.46505 31.6346 2.30793 32.244 2.30793C33.4252 2.30793 34.0256 2.94964 34.0256 4.21194V19.4182C34.0256 27.2348 37.2484 30.8767 44.1715 30.8767C46.1812 30.8767 47.8453 30.6355 49.2525 30.14C50.6642 29.6424 51.7825 28.9016 52.6646 27.8784C54.3251 25.9555 55.0946 23.0964 55.0946 18.8836V4.21194C55.0946 2.94964 55.696 2.30793 56.8772 2.30793C57.4834 2.30793 57.7744 2.46505 58.0102 2.59164C58.1675 2.67716 58.3212 2.75927 58.5153 2.75927C58.9037 2.75927 59.3169 2.5267 59.3169 1.87431C59.3169 1.01892 58.6267 0.909668 58.0259 0.909668ZM37.3782 26.172C36.4452 24.7817 35.998 22.9325 35.998 20.5228V2.75927H37.568V20.5228C37.568 23.2516 37.8487 25.0826 38.482 26.4658C38.7633 27.0819 38.8903 27.6108 39.3348 28.0688C38.528 27.5471 37.8779 26.9197 37.3782 26.172ZM85.4316 22.2656C84.7113 22.2656 84.3442 22.6164 84.3442 23.3105C84.3442 23.6107 84.3728 23.8162 84.3981 23.9822C84.4129 24.0999 84.4254 24.1929 84.4254 24.2954C84.4254 27.0951 83.1831 28.2888 80.2659 28.2888H75.1831C74.2741 28.2888 73.805 28.218 73.5581 28.0479C73.3907 27.9322 73.2387 27.7204 73.2387 26.9603V4.21194C73.2387 2.94964 73.836 2.30793 75.0191 2.30793C75.6303 2.30793 75.9202 2.46505 76.1529 2.59164C76.314 2.67716 76.4666 2.75927 76.6595 2.75927C77.0462 2.75927 77.4617 2.5267 77.4617 1.87431C77.4617 1.01892 76.77 0.909668 76.1668 0.909668H63.1323C62.5321 0.909668 61.8392 1.01892 61.8392 1.87431C61.8392 2.5267 62.2557 2.75927 62.6413 2.75927C62.8365 2.75927 62.9891 2.67716 63.1485 2.59164C63.3817 2.46505 63.6726 2.30793 64.2817 2.30793C64.896 2.30793 65.3584 2.47642 65.6467 2.80387C65.9209 3.11488 66.062 3.58783 66.062 4.21194V26.7547C66.062 28.0182 65.4617 28.6585 64.2817 28.6585C63.6726 28.6585 63.3817 28.5028 63.1485 28.3759C62.9891 28.2899 62.8365 28.2067 62.6413 28.2067C62.2557 28.2067 61.8392 28.4408 61.8392 29.0892C61.8392 29.9465 62.5321 30.055 63.1323 30.055H81.9477C83.3869 30.055 83.625 30.2562 84.4047 30.9208L84.4149 30.9307L84.4183 30.9322C84.6311 31.1012 84.9502 31.1333 85.1989 31.0126C85.371 30.9322 85.6574 30.7029 85.6574 30.1178C85.6574 29.8084 85.6251 29.4451 85.5958 29.0892C85.5623 28.7561 85.5341 28.4367 85.5341 28.1882C85.5341 26.9724 85.8123 25.9513 86.0578 25.0502C86.2374 24.3765 86.3974 23.7957 86.3974 23.271C86.3974 22.6783 86.0016 22.2656 85.4316 22.2656ZM69.6045 28.2067H68.0344V2.75927H69.6045V28.2067ZM111.802 22.2656C111.09 22.2656 110.714 22.6275 110.714 23.3105C110.714 23.6134 110.744 23.8182 110.767 23.9822C110.784 24.0999 110.796 24.1929 110.796 24.2954C110.796 27.0951 109.555 28.2888 106.639 28.2888H101.558C100.648 28.2888 100.179 28.218 99.9322 28.0479C99.7657 27.9322 99.6108 27.7204 99.6108 26.9603V4.21194C99.6108 2.94964 100.209 2.30793 101.392 2.30793C102.001 2.30793 102.291 2.46505 102.523 2.59164C102.687 2.67716 102.839 2.75927 103.033 2.75927C103.421 2.75927 103.831 2.5267 103.831 1.87431C103.831 1.01892 103.142 0.909668 102.542 0.909668H89.5073C88.9058 0.909668 88.2113 1.01892 88.2113 1.87431C88.2113 2.5267 88.6279 2.75927 89.0149 2.75927C89.2098 2.75927 89.3644 2.67716 89.5212 2.59164C89.7559 2.46505 90.048 2.30793 90.6538 2.30793C91.2724 2.30793 91.7333 2.47642 92.0231 2.80387C92.2967 3.11488 92.4343 3.58783 92.4343 4.21194V26.7547C92.4343 28.0182 91.837 28.6585 90.6538 28.6585C90.048 28.6585 89.7559 28.5028 89.5212 28.3759C89.3644 28.2899 89.2098 28.2067 89.0149 28.2067C88.6279 28.2067 88.2113 28.4408 88.2113 29.0892C88.2113 29.9465 88.9058 30.055 89.5073 30.055H108.318C109.76 30.055 109.998 30.2562 110.782 30.9228L110.786 30.9307L110.795 30.9322C111.004 31.1012 111.326 31.1333 111.576 31.0126C111.745 30.9322 112.03 30.7029 112.03 30.1178C112.03 29.8084 111.999 29.4451 111.967 29.0892C111.933 28.7561 111.907 28.4367 111.907 28.1882C111.907 26.9724 112.185 25.9513 112.431 25.0502C112.612 24.3765 112.767 23.7957 112.767 23.271C112.767 22.6783 112.371 22.2656 111.802 22.2656ZM95.9798 28.2067H94.4059V2.75927H95.9798V28.2067ZM140.243 0.909668H131.186C130.268 0.909668 129.893 1.18925 129.893 1.87431C129.893 2.5267 130.307 2.75927 130.695 2.75927C130.888 2.75927 131.042 2.67716 131.202 2.59164C131.436 2.46505 131.725 2.30793 132.332 2.30793C133.228 2.30793 133.541 2.6233 133.541 3.51666C133.541 4.04373 133.284 5.03454 132.56 6.22465C132.559 6.22535 128.125 13.6155 128.015 13.8026C127.986 13.8494 127.962 13.8818 127.942 13.9122C127.935 13.9003 127.93 13.897 127.923 13.8846L127.921 13.8789L121.688 4.57264C121.395 4.13294 121.244 3.69226 121.244 3.31546C121.244 3.12384 121.285 2.94752 121.363 2.7945C121.53 2.47939 121.859 2.30793 122.295 2.30793C122.901 2.30793 123.191 2.46505 123.426 2.59164C123.586 2.67716 123.736 2.75927 123.931 2.75927C124.321 2.75927 124.73 2.5267 124.73 1.87431C124.73 1.01892 124.04 0.909668 123.441 0.909668H109.257C108.656 0.909668 107.968 1.01892 107.968 1.87431C107.968 2.5267 108.379 2.75927 108.763 2.75927C108.959 2.75927 109.112 2.67716 109.27 2.59164C109.507 2.46505 109.799 2.30793 110.407 2.30793C111.36 2.30793 111.712 2.52868 113.307 4.87655C113.307 4.87882 121.587 16.8864 121.587 16.8864C121.594 16.8961 121.736 17.1203 121.736 17.573V26.7547C121.736 28.0182 121.135 28.6585 119.955 28.6585C119.348 28.6585 119.059 28.5028 118.823 28.3759C118.662 28.2899 118.514 28.2067 118.316 28.2067C117.931 28.2067 117.514 28.4408 117.514 29.0892C117.514 29.9465 118.206 30.055 118.807 30.055H131.843C132.444 30.055 133.131 29.9465 133.131 29.0892C133.131 28.4408 132.72 28.2067 132.332 28.2067C132.138 28.2067 131.988 28.2899 131.826 28.3759C131.591 28.5028 131.302 28.6585 130.695 28.6585C129.513 28.6585 128.913 28.0182 128.913 26.7547V16.0978C128.913 15.7415 128.943 15.631 129.114 15.3583L134.443 6.54232C136.264 3.57645 137.656 2.30793 139.096 2.30793C139.704 2.30793 139.995 2.46505 140.225 2.59106C140.389 2.67716 140.541 2.75927 140.738 2.75927C141.125 2.75927 141.537 2.5267 141.537 1.87431C141.537 1.01892 140.848 0.909668 140.243 0.909668ZM125.239 28.2067H123.667V17.4102C123.667 16.6784 123.514 16.4102 123.283 16.0876C123.283 16.0876 114.423 3.29716 114.049 2.75927H115.464C115.534 2.75927 115.338 2.76395 115.358 2.76709C115.364 2.77818 115.372 2.79238 115.381 2.80559L115.433 2.88188L115.431 2.87562C123.687 14.6396 124.863 15.9684 124.963 16.1019C125.131 16.3775 125.239 16.7607 125.239 17.0829V28.2067ZM23.7915 13.8261C24.8365 13.4848 25.8299 12.8086 26.6065 11.8868C27.6407 10.6564 28.2101 9.10797 28.2101 7.53041C28.2101 5.43091 27.3551 3.71044 25.7385 2.55513C24.2285 1.47922 22.0706 0.909668 19.4984 0.909668H2.20279C1.60082 0.909668 0.909668 1.01892 0.909668 1.87431C0.909668 2.5267 1.3228 2.75927 1.70952 2.75927C1.90429 2.75927 2.0583 2.67716 2.219 2.59106C2.45098 2.46505 2.74308 2.30793 3.35142 2.30793C4.53206 2.30793 5.13188 2.94964 5.13188 4.21194V26.7547C5.13188 28.0182 4.53206 28.6585 3.35142 28.6585C2.74308 28.6585 2.45098 28.5028 2.219 28.3759C2.0583 28.2899 1.90429 28.2067 1.70952 28.2067C1.3228 28.2067 0.909668 28.4408 0.909668 29.0892C0.909668 29.9465 1.60082 30.055 2.20279 30.055H19.825C22.5708 30.055 25.0505 29.2353 26.8125 27.7437C28.586 26.2461 29.5616 24.131 29.5616 21.7954C29.5616 19.6676 28.8666 17.7467 27.5546 16.2428C26.5535 15.0976 25.2394 14.2588 23.7915 13.8261ZM22.1799 4.00536C22.4999 4.24121 22.8462 4.53869 23.1793 4.90608C24.0052 5.82414 24.6228 6.83255 24.6228 7.90176C24.6228 8.80435 23.9381 9.88337 23.0878 10.8602C22.7185 11.2796 22.2988 11.666 21.8521 11.9992C22.0652 11.7418 22.2544 11.4682 22.4205 11.1793C22.9705 10.2127 23.2491 9.09644 23.2491 7.85902C23.2491 6.36856 22.8753 5.04431 22.1799 4.00536ZM12.3092 2.67716H15.6018C17.4882 2.67716 18.9408 3.13972 19.9273 4.05296C20.8493 4.91149 21.3193 6.12107 21.3193 7.65643C21.3193 9.30515 20.7461 10.6848 19.6645 11.6436C18.7245 12.4806 17.407 12.9597 16.0523 12.9597H12.3092V2.67716ZM8.67428 28.2067H7.10268V2.75927H8.67428V28.2067ZM20.5038 26.3665C19.2377 27.6455 17.3291 28.2888 14.8268 28.2888H12.3092V14.7277H16.0967C18.0619 14.7277 19.6936 15.4038 20.8175 16.6865C21.8012 17.8123 22.3427 19.3341 22.3427 20.976C22.3427 23.3209 21.7255 25.1366 20.5038 26.3665ZM24.169 24.9317C23.7488 25.5255 23.2383 26.0788 22.6845 26.5541C23.7628 24.9736 24.2728 23.1362 24.2728 20.8946C24.2728 19.7915 24.0495 17.4526 22.3513 15.6187C22.8732 15.9702 23.3653 16.3856 23.7915 16.8458C24.586 17.7039 25.7292 19.1073 25.7292 20.9333C25.7292 22.2913 25.0631 23.671 24.169 24.9317Z" fill="#E5AB1E"/>
<path d="M59.5256 0.390147C59.0475 0.0429165 58.471 0 58.0259 0H50.3576C49.9123 0 49.3375 0.0429165 48.8594 0.390147C48.5388 0.622129 48.1569 1.06994 48.1569 1.87448C48.1569 2.56481 48.4467 2.98419 48.6901 3.21591C48.9984 3.51013 49.4159 3.66798 49.8659 3.66798C50.2942 3.66798 50.6008 3.50289 50.8075 3.39151C50.9958 3.2922 51.1303 3.22002 51.5074 3.22002C52.0196 3.22002 52.3781 3.29107 52.3781 4.2121V20.2353C52.3781 22.4746 51.9525 24.1782 51.1072 25.2998C50.304 26.3666 49.1211 26.8866 47.4912 26.8866C45.5885 26.8866 44.2386 26.3274 43.3624 25.1791C42.5339 24.09 42.1142 22.454 42.1142 20.3206V4.2121C42.1142 3.29107 42.4722 3.22002 42.9822 3.22002C43.3597 3.22002 43.4933 3.2922 43.6826 3.39151C43.8865 3.50289 44.1975 3.66798 44.622 3.66798C45.071 3.66798 45.4901 3.51071 45.7988 3.22002C46.0439 2.98859 46.3349 2.56664 46.3349 1.87448C46.3349 1.06994 45.9514 0.622129 45.6302 0.390147C45.1504 0.0429165 44.5788 0 44.131 0H31.0964C30.6492 0 30.0738 0.0429165 29.5963 0.390147C29.2722 0.622129 28.8926 1.06994 28.8926 1.87448C28.8926 2.56481 29.182 2.98632 29.4269 3.21804C29.7341 3.51071 30.1511 3.66798 30.6033 3.66798C31.0262 3.66798 31.3388 3.50289 31.5442 3.39151C31.7342 3.2922 31.8662 3.22002 32.2441 3.22002C32.7535 3.22002 33.1144 3.29107 33.1144 4.2121V19.4184C33.1144 23.489 33.9521 26.4669 35.6741 28.514C36.6032 29.6182 37.7962 30.4504 39.2267 30.9923C40.6183 31.5193 42.283 31.7864 44.1715 31.7864C48.429 31.7864 51.4311 30.703 53.3543 28.4734C55.1644 26.375 56.0081 23.3288 56.0081 18.8838V4.2121C56.0081 3.29107 56.3678 3.22002 56.8772 3.22002C57.2553 3.22002 57.3904 3.2922 57.5771 3.39151C57.7814 3.50289 58.092 3.66798 58.5153 3.66798C58.9685 3.66798 59.3845 3.51071 59.695 3.22002C59.9377 2.98859 60.2303 2.56664 60.2303 1.87448C60.2303 1.06994 59.8453 0.622129 59.5256 0.390147ZM58.5153 2.75943C58.3213 2.75943 58.1675 2.67732 58.0103 2.59181C57.7744 2.46521 57.4835 2.30809 56.8772 2.30809C55.6961 2.30809 55.0947 2.9498 55.0947 4.2121V18.8838C55.0947 23.0966 54.3251 25.9556 52.6647 27.8785C51.7826 28.9017 50.6642 29.6426 49.2526 30.1401C47.8454 30.6357 46.1813 30.8769 44.1715 30.8769C37.2484 30.8769 34.0256 27.2349 34.0256 19.4184V4.2121C34.0256 2.9498 33.4252 2.30809 32.2441 2.30809C31.6346 2.30809 31.3431 2.46521 31.1128 2.59181C30.9515 2.67732 30.7985 2.75943 30.6033 2.75943C30.2166 2.75943 29.8017 2.52686 29.8017 1.87448C29.8017 1.01908 30.4935 0.909829 31.0964 0.909829H44.131C44.7324 0.909829 45.4246 1.01908 45.4246 1.87448C45.4246 2.52686 45.0087 2.75943 44.622 2.75943C44.4257 2.75943 44.2765 2.67732 44.1152 2.59181C43.8823 2.46521 43.5907 2.30809 42.9822 2.30809C41.8001 2.30809 41.2014 2.9498 41.2014 4.2121V20.3206C41.2014 22.659 41.6848 24.4821 42.6394 25.7333C43.6826 27.1035 45.318 27.7974 47.4912 27.7974C52.2845 27.7974 53.2888 23.6866 53.2888 20.2353V4.2121C53.2888 2.9498 52.6907 2.30809 51.5074 2.30809C50.901 2.30809 50.6091 2.46521 50.3775 2.59122C50.2152 2.67732 50.0634 2.75943 49.8659 2.75943C49.4814 2.75943 49.0676 2.52686 49.0676 1.87448C49.0676 1.01908 49.7572 0.909829 50.3576 0.909829H58.0259C58.6267 0.909829 59.3169 1.01908 59.3169 1.87448C59.3169 2.52686 58.9037 2.75943 58.5153 2.75943ZM37.3782 26.1721C36.4453 24.7818 35.998 22.9326 35.998 20.523V2.75943H37.5681V20.523C37.5681 23.2517 37.8488 25.0827 38.482 26.4659C38.7633 27.0821 38.8903 27.611 39.3349 28.0689C38.528 27.5472 37.8779 26.9198 37.3782 26.1721ZM86.4463 28.1884C86.4463 27.0953 86.7068 26.1343 86.9373 25.2893C87.1276 24.5832 87.3092 23.9165 87.3092 23.2712C87.3092 22.1788 86.5014 21.356 85.4316 21.356C84.2186 21.356 83.4318 22.1223 83.4318 23.3107C83.4318 23.6753 83.469 23.9286 83.494 24.1081C83.5048 24.1944 83.5133 24.2582 83.5133 24.2955C83.5133 25.4589 83.2798 26.2442 82.8007 26.6989C82.3151 27.1548 81.4885 27.3799 80.2659 27.3799H75.1831C74.5975 27.3799 74.3128 27.3473 74.1696 27.3195C74.1571 27.2452 74.1485 27.1317 74.1485 26.9605V4.2121C74.1485 3.29107 74.5109 3.22002 75.0192 3.22002C75.3994 3.22002 75.5329 3.2922 75.719 3.39151C75.9273 3.50289 76.2382 3.66798 76.6595 3.66798C77.1105 3.66798 77.5287 3.51071 77.839 3.21804C78.0814 2.98632 78.3735 2.56481 78.3735 1.87448C78.3735 1.0691 77.9885 0.622129 77.6663 0.390147C77.1883 0.0429165 76.6163 0 76.1668 0H63.1323C62.6862 0 62.113 0.0429165 61.6349 0.390147C61.312 0.622129 60.9274 1.06994 60.9274 1.87448C60.9274 2.56481 61.2201 2.98716 61.4639 3.22002C61.77 3.51071 62.1909 3.66798 62.6413 3.66798C63.0653 3.66798 63.3753 3.50289 63.5819 3.39151C63.77 3.2922 63.9015 3.22002 64.2817 3.22002C64.4752 3.22002 64.8219 3.24431 64.9637 3.40443C65.0821 3.53926 65.1502 3.83333 65.1502 4.2121V26.7549C65.1502 27.675 64.7889 27.748 64.2817 27.748C63.9015 27.748 63.7673 27.675 63.5819 27.5745C63.3753 27.464 63.0653 27.2993 62.6413 27.2993C62.1914 27.2993 61.7739 27.4571 61.465 27.7465C61.2201 27.9776 60.9274 28.3985 60.9274 29.0894C60.9274 29.8992 61.312 30.3439 61.6332 30.578C62.113 30.9229 62.6862 30.9681 63.1323 30.9681H81.9477C82.5342 30.9681 82.8905 31.0053 83.0959 31.088C83.2749 31.1582 83.4568 31.3094 83.8148 31.6143L83.8353 31.6321L83.8497 31.6452C84.3436 32.0351 85.0258 32.1101 85.5969 31.837C85.8879 31.6952 86.5696 31.2457 86.5696 30.118C86.5696 29.7682 86.5369 29.3815 86.5014 29.0096C86.4732 28.7086 86.4463 28.3955 86.4463 28.1884ZM86.0578 25.0503C85.8123 25.9515 85.5342 26.9726 85.5342 28.1884C85.5342 28.4369 85.5623 28.7562 85.5958 29.0894C85.6251 29.4453 85.6575 29.8086 85.6575 30.118C85.6575 30.703 85.3711 30.9323 85.1989 31.0127C84.9502 31.1335 84.6311 31.1014 84.4183 30.9323L84.4149 30.9309L84.4047 30.921C83.625 30.2563 83.3869 30.0552 81.9477 30.0552H63.1323C62.5321 30.0552 61.8392 29.9466 61.8392 29.0894C61.8392 28.441 62.2558 28.2069 62.6413 28.2069C62.8366 28.2069 62.9891 28.2901 63.1486 28.3761C63.3817 28.5029 63.6727 28.6586 64.2817 28.6586C65.4618 28.6586 66.062 28.0183 66.062 26.7549V4.2121C66.062 3.58799 65.9209 3.11504 65.6467 2.80403C65.3585 2.47659 64.896 2.30809 64.2817 2.30809C63.6727 2.30809 63.3817 2.46521 63.1486 2.59181C62.9891 2.67732 62.8366 2.75943 62.6413 2.75943C62.2558 2.75943 61.8392 2.52686 61.8392 1.87448C61.8392 1.01908 62.5321 0.909829 63.1323 0.909829H76.1668C76.7701 0.909829 77.4617 1.01908 77.4617 1.87448C77.4617 2.52686 77.0462 2.75943 76.6595 2.75943C76.4666 2.75943 76.314 2.67732 76.1529 2.59181C75.9202 2.46521 75.6304 2.30809 75.0192 2.30809C73.836 2.30809 73.2387 2.9498 73.2387 4.2121V26.9605C73.2387 27.7206 73.3908 27.9324 73.5581 28.048C73.805 28.2182 74.2742 28.289 75.1831 28.289H80.2659C83.1832 28.289 84.4254 27.0953 84.4254 24.2955C84.4254 24.1931 84.4129 24.1 84.3981 23.9824C84.3729 23.8163 84.3442 23.6109 84.3442 23.3107C84.3442 22.6165 84.7113 22.2658 85.4316 22.2658C86.0016 22.2658 86.3974 22.6785 86.3974 23.2712C86.3974 23.7959 86.2374 24.3766 86.0578 25.0503ZM69.6046 28.2069H68.0344V2.75943H69.6046V28.2069ZM111.802 21.356C110.59 21.356 109.802 22.1223 109.802 23.3107C109.802 23.6753 109.839 23.9286 109.865 24.1122C109.879 24.1949 109.887 24.2582 109.887 24.2955C109.887 25.4589 109.653 26.2442 109.175 26.6989C108.689 27.1548 107.859 27.3799 106.639 27.3799H101.558C100.974 27.3799 100.685 27.3473 100.541 27.3195C100.533 27.2452 100.523 27.1317 100.523 26.9605V4.2121C100.523 3.29107 100.885 3.22002 101.392 3.22002C101.77 3.22002 101.905 3.2922 102.091 3.39151C102.298 3.50289 102.609 3.66798 103.033 3.66798C103.483 3.66798 103.904 3.51071 104.211 3.21591C104.452 2.98632 104.743 2.56481 104.743 1.87448C104.743 1.06994 104.364 0.622129 104.04 0.390147C103.562 0.0429165 102.989 0 102.542 0H89.5073C89.0615 0 88.4872 0.0429165 88.009 0.390147C87.6868 0.622129 87.3027 1.06994 87.3027 1.87448C87.3027 2.56664 87.5959 2.98859 87.8383 3.22002C88.1477 3.51071 88.5651 3.66798 89.0149 3.66798C89.4411 3.66798 89.7505 3.50289 89.9551 3.39151C90.1432 3.2922 90.2762 3.22002 90.6538 3.22002C90.8496 3.22002 91.1957 3.24431 91.3395 3.40443C91.4574 3.53926 91.5245 3.83333 91.5245 4.2121V26.7549C91.5245 27.675 91.1641 27.748 90.6538 27.748C90.2762 27.748 90.1432 27.675 89.9551 27.5745C89.7505 27.464 89.4411 27.2993 89.0149 27.2993C88.5651 27.2993 88.1497 27.4571 87.8403 27.7465C87.5959 27.9776 87.3027 28.3985 87.3027 29.0894C87.3027 29.8992 87.6868 30.3439 88.009 30.578C88.4872 30.9229 89.0615 30.9681 89.5073 30.9681H108.318C108.908 30.9681 109.261 31.0053 109.471 31.088C109.65 31.1582 109.83 31.3094 110.189 31.6185L110.21 31.6321L110.23 31.6466C110.717 32.0357 111.405 32.1101 111.972 31.837C112.263 31.6952 112.939 31.2423 112.939 30.118C112.939 29.7682 112.907 29.3815 112.874 29.0096C112.848 28.7086 112.82 28.3955 112.82 28.1884C112.82 27.0953 113.08 26.1343 113.309 25.2893C113.498 24.5832 113.68 23.9165 113.68 23.2712C113.68 22.1788 112.874 21.356 111.802 21.356ZM112.431 25.0503C112.185 25.9515 111.907 26.9726 111.907 28.1884C111.907 28.4369 111.933 28.7562 111.967 29.0894C111.999 29.4453 112.03 29.8086 112.03 30.118C112.03 30.703 111.745 30.9323 111.576 31.0127C111.326 31.1335 111.004 31.1014 110.795 30.9323L110.786 30.9309L110.782 30.9229C109.998 30.2563 109.76 30.0552 108.318 30.0552H89.5073C88.9058 30.0552 88.2113 29.9466 88.2113 29.0894C88.2113 28.441 88.6279 28.2069 89.0149 28.2069C89.2098 28.2069 89.3644 28.2901 89.5212 28.3761C89.756 28.5029 90.048 28.6586 90.6538 28.6586C91.837 28.6586 92.4343 28.0183 92.4343 26.7549V4.2121C92.4343 3.58799 92.2968 3.11504 92.0231 2.80403C91.7333 2.47659 91.2724 2.30809 90.6538 2.30809C90.048 2.30809 89.756 2.46521 89.5212 2.59181C89.3644 2.67732 89.2098 2.75943 89.0149 2.75943C88.6279 2.75943 88.2113 2.52686 88.2113 1.87448C88.2113 1.01908 88.9058 0.909829 89.5073 0.909829H102.542C103.142 0.909829 103.831 1.01908 103.831 1.87448C103.831 2.52686 103.422 2.75943 103.033 2.75943C102.839 2.75943 102.687 2.67732 102.523 2.59181C102.291 2.46521 102.001 2.30809 101.392 2.30809C100.209 2.30809 99.6109 2.9498 99.6109 4.2121V26.9605C99.6109 27.7206 99.7657 27.9324 99.9322 28.048C100.179 28.2182 100.648 28.289 101.558 28.289H106.639C109.555 28.289 110.796 27.0953 110.796 24.2955C110.796 24.1931 110.784 24.1 110.767 23.9824C110.744 23.8183 110.714 23.6136 110.714 23.3107C110.714 22.6276 111.09 22.2658 111.802 22.2658C112.371 22.2658 112.767 22.6785 112.767 23.2712C112.767 23.7959 112.612 24.3766 112.431 25.0503ZM95.9798 28.2069H94.4059V2.75943H95.9798V28.2069ZM141.742 0.390147C141.264 0.0429165 140.692 0 140.243 0H131.186C130.703 0 130.089 0.0507433 129.599 0.44668C129.19 0.782244 128.984 1.2616 128.984 1.87448C128.984 2.56481 129.274 2.98716 129.518 3.21804C129.825 3.51071 130.245 3.66798 130.695 3.66798C131.119 3.66798 131.429 3.50289 131.633 3.39151C131.822 3.2922 131.956 3.22002 132.332 3.22002C132.468 3.22002 132.556 3.23026 132.611 3.24035C132.619 3.2922 132.631 3.38042 132.631 3.51682C132.631 3.91814 132.366 4.79076 131.783 5.75127C131.783 5.75127 128.88 10.5879 127.904 12.2185C126.716 10.447 122.446 4.0642 122.446 4.0642C122.204 3.7035 122.153 3.4472 122.153 3.31562C122.153 3.276 122.157 3.25327 122.162 3.23864C122.181 3.23026 122.221 3.22002 122.295 3.22002C122.668 3.22002 122.807 3.2922 122.992 3.39151C123.195 3.50289 123.505 3.66798 123.931 3.66798C124.384 3.66798 124.8 3.51071 125.109 3.21804C125.352 2.98716 125.642 2.56481 125.642 1.87448C125.642 1.06994 125.259 0.622129 124.94 0.390147C124.46 0.0429165 123.885 0 123.441 0H109.257C108.811 0 108.235 0.0429165 107.759 0.390147C107.437 0.622129 107.056 1.06994 107.056 1.87448C107.056 2.56481 107.345 2.98632 107.586 3.21804C107.898 3.51071 108.315 3.66798 108.763 3.66798C109.191 3.66798 109.5 3.50289 109.706 3.39151C109.892 3.2922 110.03 3.22002 110.407 3.22002C110.909 3.22002 111.081 3.22002 112.551 5.38871C112.551 5.38871 120.72 17.2317 120.799 17.3462C120.807 17.38 120.824 17.4527 120.824 17.5732V26.7549C120.824 27.675 120.463 27.748 119.955 27.748C119.577 27.748 119.444 27.675 119.256 27.5745C119.053 27.464 118.741 27.2993 118.316 27.2993C117.865 27.2993 117.446 27.4571 117.14 27.7465C116.895 27.9776 116.604 28.3985 116.604 29.0894C116.604 29.8992 116.987 30.3439 117.308 30.578C117.788 30.9229 118.36 30.9681 118.807 30.9681H131.843C132.287 30.9681 132.864 30.9229 133.341 30.578C133.661 30.3427 134.043 29.8992 134.043 29.0894C134.043 28.3995 133.755 27.9795 133.511 27.748C133.201 27.4577 132.782 27.2993 132.332 27.2993C131.907 27.2993 131.6 27.464 131.392 27.5745C131.206 27.675 131.073 27.748 130.695 27.748C130.184 27.748 129.825 27.675 129.825 26.7549V16.098C129.825 16.003 129.827 15.9604 129.828 15.9371C129.837 15.9239 129.85 15.8952 129.887 15.8446L129.889 15.8354C129.889 15.8354 135.213 7.0312 135.221 7.02111C136.808 4.42578 138.041 3.22002 139.096 3.22002C139.473 3.22002 139.609 3.2922 139.794 3.39151C140.001 3.50289 140.311 3.66798 140.738 3.66798C141.19 3.66798 141.603 3.51071 141.915 3.21804C142.157 2.98716 142.447 2.56481 142.447 1.87448C142.447 1.06994 142.065 0.622129 141.742 0.390147ZM140.738 2.75943C140.541 2.75943 140.389 2.67732 140.225 2.59122C139.995 2.46521 139.705 2.30809 139.096 2.30809C137.656 2.30809 136.264 3.57662 134.443 6.54248L129.114 15.3585C128.943 15.6311 128.913 15.7416 128.913 16.098V26.7549C128.913 28.0183 129.513 28.6586 130.695 28.6586C131.302 28.6586 131.591 28.5029 131.826 28.3761C131.988 28.2901 132.138 28.2069 132.332 28.2069C132.72 28.2069 133.131 28.441 133.131 29.0894C133.131 29.9466 132.444 30.0552 131.843 30.0552H118.807C118.206 30.0552 117.514 29.9466 117.514 29.0894C117.514 28.441 117.931 28.2069 118.316 28.2069C118.514 28.2069 118.662 28.2901 118.823 28.3761C119.059 28.5029 119.348 28.6586 119.955 28.6586C121.135 28.6586 121.736 28.0183 121.736 26.7549V17.5732C121.736 17.1204 121.594 16.8962 121.587 16.8866C121.587 16.8866 113.307 4.87898 113.307 4.87671C111.712 2.52884 111.36 2.30809 110.407 2.30809C109.799 2.30809 109.507 2.46521 109.27 2.59181C109.112 2.67732 108.959 2.75943 108.763 2.75943C108.379 2.75943 107.968 2.52686 107.968 1.87448C107.968 1.01908 108.656 0.909829 109.257 0.909829H123.441C124.04 0.909829 124.73 1.01908 124.73 1.87448C124.73 2.52686 124.321 2.75943 123.931 2.75943C123.736 2.75943 123.586 2.67732 123.426 2.59181C123.191 2.46521 122.901 2.30809 122.295 2.30809C121.86 2.30809 121.53 2.47955 121.363 2.79466C121.285 2.94768 121.244 3.124 121.244 3.31562C121.244 3.69242 121.396 4.1331 121.688 4.5728L127.921 13.8791L127.923 13.8848C127.93 13.8971 127.935 13.9004 127.942 13.9124C127.962 13.882 127.986 13.8495 128.015 13.8028C128.125 13.6157 132.559 6.22551 132.56 6.22481C133.284 5.0347 133.541 4.0439 133.541 3.51682C133.541 2.62346 133.228 2.30809 132.332 2.30809C131.725 2.30809 131.437 2.46521 131.202 2.59181C131.042 2.67732 130.888 2.75943 130.695 2.75943C130.307 2.75943 129.893 2.52686 129.893 1.87448C129.893 1.18941 130.268 0.909829 131.186 0.909829H140.243C140.848 0.909829 141.537 1.01908 141.537 1.87448C141.537 2.52686 141.125 2.75943 140.738 2.75943ZM125.239 28.2069H123.667V17.4104C123.667 16.6786 123.514 16.4104 123.283 16.0877C123.283 16.0877 114.423 3.29732 114.049 2.75943H115.464C115.534 2.75943 115.338 2.76411 115.358 2.76725C115.364 2.77834 115.372 2.79254 115.381 2.80575L115.433 2.88204L115.431 2.87578C123.687 14.6398 124.863 15.9685 124.963 16.1021C125.131 16.3777 125.239 16.7608 125.239 17.0831V28.2069ZM25.9181 13.7501C26.4237 13.3895 26.8905 12.9599 27.3015 12.4735C28.4735 11.08 29.1213 9.32419 29.1213 7.53058C29.1213 5.12234 28.1317 3.14431 26.2669 1.81381C24.6018 0.62597 22.2626 0 19.4984 0H2.20281C1.75613 0 1.18119 0.0429165 0.701975 0.390147C0.382877 0.622129 0 1.06994 0 1.87448C0 2.56481 0.288256 2.98419 0.532199 3.21591C0.842044 3.51013 1.25748 3.66798 1.70955 3.66798C2.13304 3.66798 2.44405 3.50289 2.65005 3.39151C2.83772 3.2922 2.97398 3.22002 3.35145 3.22002C3.85821 3.22002 4.21851 3.29107 4.21851 4.2121V26.7549C4.21851 27.675 3.85821 27.748 3.35145 27.748C2.97398 27.748 2.83772 27.675 2.65005 27.5745C2.44405 27.464 2.13304 27.2993 1.70955 27.2993C1.25748 27.2993 0.842044 27.4577 0.532199 27.748C0.288256 27.9795 0 28.3995 0 29.0894C0 29.8992 0.382324 30.3439 0.701975 30.578C1.18119 30.9229 1.75613 30.9681 2.20281 30.9681H19.825C21.3157 30.9681 22.7267 30.7491 24.022 30.3135C25.3037 29.8838 26.4427 29.2505 27.4026 28.441C29.3815 26.7638 30.4724 24.4036 30.4724 21.7955C30.4724 19.442 29.6996 17.3152 28.2394 15.6419C27.5762 14.8841 26.7877 14.2459 25.9181 13.7501ZM26.8126 27.7439C25.0506 29.2354 22.5709 30.0552 19.825 30.0552H2.20281C1.60084 30.0552 0.909693 29.9466 0.909693 29.0894C0.909693 28.441 1.32283 28.2069 1.70955 28.2069C1.90432 28.2069 2.05832 28.2901 2.21902 28.3761C2.45101 28.5029 2.7431 28.6586 3.35145 28.6586C4.53208 28.6586 5.1319 28.0183 5.1319 26.7549V4.2121C5.1319 2.9498 4.53208 2.30809 3.35145 2.30809C2.7431 2.30809 2.45101 2.46521 2.21902 2.59122C2.05832 2.67732 1.90432 2.75943 1.70955 2.75943C1.32283 2.75943 0.909693 2.52686 0.909693 1.87448C0.909693 1.01908 1.60084 0.909829 2.20281 0.909829H19.4984C22.0706 0.909829 24.2285 1.47938 25.7385 2.55529C27.3551 3.7106 28.2101 5.43107 28.2101 7.53058C28.2101 9.10813 27.6407 10.6565 26.6066 11.887C25.83 12.8087 24.8365 13.485 23.7915 13.8263C25.2394 14.259 26.5535 15.0978 27.5546 16.243C28.8666 17.7468 29.5616 19.6677 29.5616 21.7955C29.5616 24.1312 28.586 26.2463 26.8126 27.7439ZM19.6645 11.6438C20.7461 10.685 21.3194 9.30531 21.3194 7.65659C21.3194 6.12123 20.8494 4.91165 19.9273 4.05312C18.9408 3.13989 17.4883 2.67732 15.6018 2.67732H12.3092V12.9599H16.0523C17.407 12.9599 18.7246 12.4807 19.6645 11.6438ZM13.2206 3.587H15.6018C17.2492 3.587 18.4974 3.96874 19.3065 4.72157C20.0376 5.40081 20.4081 6.38577 20.4081 7.65659C20.4081 9.03623 19.9414 10.1814 19.061 10.9648C18.2849 11.6557 17.1886 12.0497 16.0523 12.0497H13.2206V3.587ZM16.0967 14.7278H12.3092V28.289H14.8268C17.3291 28.289 19.2377 27.6457 20.5039 26.3666C21.7255 25.1367 22.3427 23.3211 22.3427 20.9762C22.3427 19.3343 21.8013 17.8125 20.8176 16.6867C19.6936 15.4039 18.062 14.7278 16.0967 14.7278ZM19.8564 25.7266C18.7689 26.8228 17.0734 27.3799 14.8268 27.3799H13.2206V15.6399H16.0967C17.7927 15.6399 19.1886 16.2083 20.1328 17.2865C20.9696 18.2441 21.433 19.5545 21.433 20.9762C21.433 23.0713 20.9029 24.6696 19.8564 25.7266ZM8.6743 28.2069H7.1027V2.75943H8.6743V28.2069ZM22.1799 4.00552C22.5 4.24137 22.8462 4.53885 23.1793 4.90624C24.0052 5.8243 24.6228 6.83271 24.6228 7.90193C24.6228 8.80451 23.9382 9.88353 23.0879 10.8604C22.7185 11.2798 22.2988 11.6662 21.8521 11.9994C22.0652 11.7419 22.2545 11.4683 22.4205 11.1795C22.9705 10.2128 23.2491 9.09661 23.2491 7.85918C23.2491 6.36872 22.8753 5.04448 22.1799 4.00552ZM24.169 24.9319C23.7488 25.5257 23.2383 26.0789 22.6845 26.5543C23.7628 24.9738 24.2729 23.1364 24.2729 20.8948C24.2729 19.7916 24.0496 17.4527 22.3514 15.6189C22.8732 15.9704 23.3653 16.3858 23.7915 16.846C24.586 17.7041 25.7292 19.1074 25.7292 20.9334C25.7292 22.2915 25.0631 23.6711 24.169 24.9319Z" fill="#253250"/>
<path d="M138.903 28.7623C138.898 28.7693 138.892 28.7744 138.887 28.7744C138.877 28.7744 138.871 28.7704 138.866 28.765C138.859 28.759 138.858 28.7522 138.858 28.744C138.858 28.7326 138.858 28.7247 138.859 28.7177C138.859 28.7128 138.859 28.7087 138.86 28.7033C138.86 28.7007 138.861 28.6965 138.863 28.6925C138.863 28.6872 138.864 28.6801 138.864 28.6701C138.864 28.5678 138.841 28.4945 138.797 28.4543C138.753 28.4135 138.686 28.3924 138.595 28.3924H138.339V29.8649C138.339 29.9075 138.348 29.9405 138.37 29.9641C138.39 29.9862 138.421 29.9979 138.464 29.9979C138.5 29.9979 138.521 29.9922 138.531 29.984C138.543 29.9754 138.553 29.9712 138.563 29.9712C138.572 29.9712 138.581 29.974 138.585 29.9774C138.59 29.982 138.595 29.9916 138.595 30.0058C138.595 30.0197 138.589 30.0297 138.584 30.0348C138.573 30.0428 138.557 30.0459 138.534 30.0459H137.746C137.721 30.0459 137.707 30.0428 137.697 30.0348C137.69 30.0297 137.684 30.0197 137.684 30.0058C137.684 29.9916 137.69 29.982 137.695 29.9774C137.7 29.974 137.707 29.9712 137.715 29.9712C137.724 29.9712 137.736 29.9754 137.747 29.984C137.758 29.9922 137.781 29.9979 137.815 29.9979C137.857 29.9979 137.89 29.9862 137.909 29.9641C137.93 29.9405 137.941 29.9075 137.941 29.8649V28.3924H137.687C137.595 28.3924 137.527 28.4135 137.484 28.4543C137.438 28.4945 137.417 28.5678 137.417 28.6701C137.417 28.6801 137.417 28.6872 137.419 28.6925C137.419 28.6965 137.419 28.7007 137.42 28.7033C137.42 28.7087 137.42 28.7128 137.422 28.7177V28.744C137.422 28.7522 137.42 28.759 137.415 28.765C137.41 28.7704 137.401 28.7744 137.393 28.7744C137.388 28.7744 137.381 28.7693 137.374 28.7623C137.369 28.7542 137.366 28.7428 137.366 28.7326C137.366 28.721 137.367 28.7055 137.369 28.6842C137.369 28.6627 137.372 28.6405 137.374 28.6141C137.377 28.5881 137.38 28.5606 137.381 28.5333C137.384 28.504 137.384 28.4764 137.384 28.451V28.3702C137.381 28.347 137.38 28.3297 137.38 28.3212C137.38 28.3021 137.384 28.2891 137.39 28.2854C137.396 28.2791 137.407 28.2791 137.417 28.2861C137.426 28.2921 137.435 28.2974 137.443 28.3021C137.451 28.3072 137.462 28.3104 137.471 28.3132C137.484 28.3145 137.497 28.3172 137.513 28.319C137.532 28.319 137.555 28.3212 137.586 28.3212H138.695C138.727 28.3212 138.748 28.319 138.767 28.319C138.784 28.3172 138.797 28.3145 138.809 28.3132C138.819 28.3104 138.828 28.3072 138.838 28.3021C138.845 28.2974 138.853 28.2921 138.864 28.2861C138.873 28.2791 138.882 28.2791 138.89 28.2854C138.894 28.2891 138.9 28.3021 138.9 28.3212C138.9 28.3297 138.898 28.347 138.897 28.3702C138.894 28.3956 138.893 28.4229 138.893 28.451C138.893 28.4764 138.894 28.504 138.894 28.5333C138.898 28.5606 138.898 28.5881 138.902 28.6141C138.903 28.6405 138.907 28.6627 138.909 28.6842C138.912 28.7055 138.912 28.721 138.912 28.7326C138.912 28.7428 138.911 28.7542 138.903 28.7623ZM138.085 28.4107C138.085 28.4013 138.08 28.3965 138.071 28.3965H138.037C138.029 28.3965 138.023 28.4013 138.023 28.4107V29.957C138.023 29.9661 138.029 29.9712 138.037 29.9712H138.071C138.08 29.9712 138.085 29.9661 138.085 29.957V28.4107Z" fill="#253250"/>
<path d="M141.475 30.0349C141.468 30.0429 141.451 30.046 141.43 30.046H140.644C140.617 30.046 140.605 30.0429 140.594 30.0349C140.585 30.0298 140.581 30.0199 140.581 30.0059C140.581 29.9917 140.585 29.9821 140.589 29.9775C140.597 29.9741 140.605 29.9713 140.613 29.9713C140.622 29.9713 140.632 29.9755 140.644 29.9841C140.655 29.9923 140.679 29.998 140.712 29.998C140.754 29.998 140.786 29.9863 140.807 29.9619C140.827 29.9406 140.837 29.9062 140.837 29.865V28.5071C140.837 28.4946 140.835 28.4888 140.832 28.4879C140.829 28.4879 140.825 28.4906 140.823 28.5001C140.773 28.6107 140.732 28.713 140.693 28.8011C140.654 28.8911 140.61 28.9911 140.563 29.1039C140.514 29.2165 140.466 29.3276 140.421 29.4392C140.373 29.5525 140.328 29.6601 140.283 29.7613C140.242 29.8627 140.208 29.9477 140.18 30.0162C140.168 30.0491 140.155 30.065 140.143 30.0634C140.131 30.0625 140.117 30.0491 140.105 30.0207L139.439 28.6107C139.432 28.599 139.43 28.5945 139.423 28.5945C139.421 28.5951 139.42 28.6012 139.42 28.6134V29.865C139.42 29.9062 139.431 29.9406 139.454 29.9619C139.472 29.9863 139.504 29.998 139.546 29.998C139.578 29.998 139.603 29.9923 139.615 29.9841C139.625 29.9755 139.637 29.9713 139.647 29.9713C139.653 29.9713 139.66 29.9741 139.667 29.9775C139.673 29.9821 139.676 29.9917 139.676 30.0059C139.676 30.0199 139.67 30.0298 139.664 30.0349C139.655 30.0429 139.64 30.046 139.617 30.046H139.145C139.124 30.046 139.107 30.0429 139.099 30.0349C139.092 30.0298 139.087 30.0199 139.087 30.0059C139.087 29.9917 139.091 29.9821 139.096 29.9775C139.099 29.9741 139.107 29.9713 139.115 29.9713C139.127 29.9713 139.137 29.9755 139.148 29.9841C139.161 29.9923 139.182 29.998 139.215 29.998C139.259 29.998 139.29 29.9863 139.31 29.9642C139.333 29.9406 139.341 29.9076 139.341 29.865V28.5031C139.341 28.4622 139.334 28.429 139.313 28.4047C139.298 28.3817 139.268 28.3703 139.225 28.3703C139.19 28.3703 139.17 28.3744 139.157 28.3835C139.145 28.3925 139.137 28.3966 139.127 28.3966C139.117 28.3966 139.111 28.3957 139.105 28.3898C139.099 28.3844 139.096 28.3744 139.096 28.3613C139.096 28.3479 139.099 28.3376 139.109 28.3308C139.116 28.3254 139.132 28.3213 139.157 28.3213H139.745C139.77 28.3213 139.783 28.3247 139.793 28.3287C139.8 28.3349 139.804 28.3416 139.804 28.3529C139.804 28.364 139.804 28.3703 139.803 28.3733C139.799 28.3744 139.794 28.3772 139.793 28.3772C139.79 28.3795 139.787 28.3817 139.787 28.3835C139.786 28.3858 139.786 28.3898 139.786 28.3966C139.786 28.4014 139.793 28.4278 139.812 28.4724C139.832 28.5182 139.858 28.5729 139.884 28.6378C139.913 28.7016 139.946 28.7745 139.984 28.8555C140.019 28.9357 140.056 29.0139 140.091 29.0896C140.125 29.1663 140.159 29.2356 140.189 29.3027C140.22 29.3662 140.245 29.4179 140.263 29.4554C140.278 29.4928 140.29 29.5141 140.291 29.5152C140.298 29.5323 140.306 29.5323 140.311 29.5152L140.771 28.4196C140.78 28.4079 140.78 28.3997 140.78 28.3966C140.78 28.3898 140.78 28.3858 140.778 28.3835C140.773 28.3817 140.771 28.3801 140.769 28.3795C140.768 28.3772 140.765 28.3772 140.763 28.3744C140.761 28.3703 140.761 28.3655 140.761 28.3557C140.761 28.3449 140.765 28.3358 140.773 28.3298C140.781 28.3254 140.796 28.3213 140.82 28.3213H141.43C141.451 28.3213 141.468 28.3254 141.475 28.3308C141.482 28.3376 141.488 28.3479 141.488 28.3613C141.488 28.3744 141.485 28.3844 141.478 28.3898C141.473 28.3957 141.468 28.3966 141.459 28.3966C141.448 28.3966 141.439 28.3925 141.424 28.3835C141.417 28.3744 141.392 28.3703 141.358 28.3703C141.316 28.3703 141.285 28.3817 141.264 28.4038C141.243 28.4268 141.234 28.4601 141.234 28.5031V29.865C141.234 29.9076 141.243 29.9406 141.264 29.9642C141.285 29.9863 141.316 29.998 141.358 29.998C141.392 29.998 141.417 29.9923 141.424 29.9841C141.439 29.9755 141.448 29.9713 141.459 29.9713C141.468 29.9713 141.473 29.9741 141.478 29.9775C141.485 29.9821 141.488 29.9917 141.488 30.0059C141.488 30.0199 141.482 30.0298 141.475 30.0349ZM140.163 29.8355L139.5 28.4136C139.499 28.4047 139.492 28.4005 139.481 28.4005H139.436C139.43 28.4005 139.425 28.4028 139.427 28.4086C139.43 28.4136 139.431 28.4176 139.432 28.4209L140.123 29.8943C140.131 29.9076 140.137 29.9093 140.143 29.8999L140.163 29.8599C140.167 29.8505 140.167 29.8434 140.163 29.8355ZM140.98 28.4108C140.98 28.4005 140.974 28.3966 140.964 28.3966H140.931C140.924 28.3966 140.92 28.4005 140.92 28.4108V29.9571C140.92 29.9662 140.924 29.9713 140.931 29.9713H140.964C140.974 29.9713 140.98 29.9662 140.98 29.9571V28.4108Z" fill="#253250"/>
</svg>
