<svg width="166" height="32" viewBox="0 0 166 32" fill="none" xmlns="http://www.w3.org/2000/svg">
<path d="M29.5238 26.9038C29.5067 26.7655 29.4546 26.6326 29.3674 26.5176C29.2155 26.3172 28.9847 26.2022 28.7342 26.2022H12.1648C13.6069 22.4038 17.4928 12.1768 18.7054 9.06893C19.3111 7.51646 20.2058 6.50941 21.4405 5.99019C22.0427 5.73697 22.6729 5.61629 23.3212 5.55892L21.3869 11.446C21.3165 11.6602 21.3529 11.8972 21.4842 12.08C21.6138 12.2605 21.8223 12.3687 22.0433 12.3715C22.0453 12.5148 22.0897 12.6564 22.175 12.7752C22.3063 12.958 22.5185 13.0672 22.7427 13.0672H26.1064C26.4091 13.0672 26.6764 12.8728 26.7714 12.5837L30.041 1.66208C30.1114 1.43877 30.0724 1.19298 29.9359 1.00283C29.8064 0.822472 29.6019 0.711486 29.3826 0.697932C29.3742 0.559009 29.3279 0.42307 29.2451 0.30767C29.1068 0.115047 28.8832 6.21766e-05 28.6471 6.21766e-05H24.6815C22.9712 6.21766e-05 20.9555 0.103006 18.9724 0.866617C16.4221 1.84863 14.5545 3.701 13.4214 6.37223C11.1533 11.7196 8.02032 19.288 6.35465 23.3235C5.94222 24.3227 5.18405 25.0865 4.10123 25.5937C3.00711 26.1062 1.94593 26.1886 1.54049 26.2003C1.22094 26.2095 0.945477 26.4231 0.855041 26.7316C0.771773 27.0153 0.628035 27.6278 0.475833 28.2764C0.315866 28.9581 0.134521 29.7308 0.0290302 30.0903C-0.0345693 30.307 0.00773422 30.5444 0.142162 30.7254C0.271936 30.9001 0.476142 31.006 0.692129 31.0135C0.697175 31.1589 0.744813 31.3019 0.832963 31.4206C0.967597 31.6019 1.18222 31.7101 1.40717 31.7101H28.4972C28.8869 31.7101 29.2309 31.446 29.3339 31.0678L30.1932 27.9107C30.2594 27.6676 30.2102 27.4132 30.0583 27.2128C29.9266 27.0391 29.7355 26.9299 29.5239 26.9038L29.5238 26.9038ZM75.6527 1.0279C75.521 0.858016 75.3354 0.747632 75.1294 0.710305C75.105 0.57476 75.0492 0.445288 74.9619 0.332728C74.798 0.121286 74.5511 0 74.2846 0H65.1715C59.1464 0 55.1656 2.47937 53.34 7.36925C52.5116 9.588 51.4002 12.5556 50.035 16.1946H44.3719C43.9826 16.1946 43.6413 16.4591 43.5419 16.8378L42.6823 20.1105C42.6256 20.3264 42.6707 20.5518 42.8061 20.7287C42.9379 20.9009 43.1356 21.0008 43.3505 21.0062C43.354 21.1558 43.4033 21.3015 43.4969 21.4239C43.6324 21.6009 43.8373 21.7024 44.0593 21.7024H47.9673C47.6611 22.5175 47.4716 23.0215 47.4509 23.0767C46.5657 25.2967 45.4055 26.2022 43.4469 26.2022H41.7141C41.3652 26.2022 41.0608 26.4397 40.9739 26.7798L40.1372 30.0542C40.0779 30.2861 40.1275 30.5277 40.2733 30.717C40.4046 30.8873 40.5961 30.9915 40.8066 31.0108C40.8194 31.155 40.8729 31.2938 40.9641 31.4122C41.11 31.6014 41.3302 31.71 41.5682 31.71H43.4292C46.1988 31.71 48.2106 31.129 49.7603 29.8815C51.1205 28.7865 52.1514 27.1557 53.1022 24.5954L54.0526 22.0637C56.3534 22.5339 58.2349 23.4547 59.7937 24.8712C59.8183 24.8937 59.8426 24.9166 59.8671 24.9392C61.1634 26.3595 62.1774 28.1678 62.9518 30.4341C63.0489 30.7184 63.3064 30.9362 63.5966 30.9972C63.6119 31.0412 63.6274 31.0849 63.6426 31.1293C63.7575 31.4658 64.0969 31.71 64.4496 31.71H67.6778C68.0701 31.71 68.4107 31.4426 68.5062 31.0597L75.8086 1.76994C75.8735 1.50983 75.8166 1.23934 75.6527 1.0279ZM64.8998 22.8284C64.4602 22.2679 63.9782 21.7418 63.4551 21.2512C62.6781 20.414 61.795 19.6658 60.8094 19.0135C59.3672 18.059 57.7563 17.3385 56.0057 16.8615C56.9852 14.2527 57.9817 11.599 58.5833 9.99747C60.2649 5.52167 64.5973 5.50783 66.4665 5.50783H69.2449L64.8998 22.8284H64.8998ZM37.3343 26.899C37.3288 26.7489 37.2779 26.6031 37.1832 26.481C37.0457 26.3039 36.8388 26.2022 36.6154 26.2022H33.0536C32.6084 26.2022 32.2221 26.5057 32.1142 26.9403L31.3257 30.1143C31.2715 30.3323 31.3192 30.559 31.4567 30.7361C31.5883 30.9058 31.7838 31.0051 31.9963 31.0133C32.0018 31.1634 32.0528 31.3092 32.1475 31.4312C32.2849 31.6084 32.4919 31.71 32.7152 31.71H36.3555C36.7544 31.71 37.1006 31.4381 37.1974 31.0485L38.005 27.798C38.0591 27.58 38.0114 27.3533 37.874 27.1761C37.7424 27.0065 37.5468 26.9072 37.3344 26.899L37.3343 26.899ZM164.633 28.3771C164.502 28.1673 164.295 28.0267 164.059 27.9821C164.039 27.8775 164 27.7758 163.942 27.682C163.782 27.4251 163.507 27.2717 163.206 27.2717H161.043C161.638 26.6945 162.159 26.0866 162.599 25.4515C163.411 24.282 163.938 23.0231 164.125 21.8108C164.367 20.237 164.04 18.7816 163.205 17.7128C163.028 17.4858 162.819 17.2844 162.583 17.108C162.561 17.0776 162.538 17.0474 162.515 17.0177C161.889 16.2173 160.884 15.7238 159.608 15.5903C157.348 15.3538 154.472 16.2821 152.616 17.8474C151.319 18.9407 150.338 20.2773 149.701 21.8201C149.143 23.1715 148.884 24.6117 148.955 25.985C148.977 26.4276 149.049 26.858 149.17 27.2717H146.594L148.563 19.403C148.743 18.6824 148.628 18.0093 148.24 17.5077C148.091 17.3154 147.904 17.1546 147.694 17.03C147.651 16.9546 147.603 16.8818 147.549 16.8126C147.175 16.3302 146.568 16.0422 145.925 16.0422H141.663C141.501 15.4467 141.183 14.8998 140.734 14.4588C140.626 14.3531 140.512 14.2557 140.394 14.1657C140.288 14.0241 140.171 13.8894 140.043 13.7636C139.424 13.1552 138.61 12.8007 137.753 12.7655C136.792 12.7261 135.883 13.0723 135.191 13.7405C134.499 14.409 134.118 15.3087 134.118 16.2739C134.118 17.3948 134.652 18.4288 135.512 19.0811C135.641 19.2525 135.785 19.412 135.943 19.5578C135.468 21.4475 134.166 26.6283 134.067 27.0242C134.006 27.2717 133.911 27.2717 133.88 27.2717H130.123C130.546 25.5797 132.322 18.4759 132.741 16.7988C132.806 16.5398 132.733 16.2718 132.546 16.082C132.416 15.9499 132.249 15.8731 132.071 15.8595C132.058 15.6839 131.984 15.517 131.856 15.3868C131.669 15.197 131.403 15.121 131.145 15.1835L127.67 16.0256C127.397 16.0917 127.185 16.3028 127.116 16.5765L126.314 19.7854H123.569C123.195 18.8794 122.629 18.0928 121.898 17.4685C121.659 17.1846 121.394 16.9226 121.104 16.686C120.006 15.7898 118.625 15.3162 117.113 15.3162C115.082 15.3162 113.084 16.1036 111.487 17.5336C109.865 18.9859 108.778 21.0075 108.425 23.2259C108.057 25.5376 108.58 27.7306 109.861 29.2425C110.067 29.4862 110.291 29.7096 110.531 29.9123C110.538 29.9207 110.545 29.9293 110.552 29.9377C111.678 31.2676 113.325 32 115.189 32C117.179 32 119.133 31.25 120.691 29.8882C122.183 28.5842 123.245 26.8173 123.779 24.7584H125.069L124.339 27.6759C124.029 28.9161 124.363 29.692 124.698 30.1245C124.855 30.3267 125.045 30.4975 125.261 30.6343C125.302 30.702 125.346 30.7638 125.389 30.8197C125.827 31.3855 126.527 31.71 127.309 31.71H135.616C136.578 31.71 137.338 31.42 137.874 30.848C138.346 30.3449 138.539 29.7313 138.644 29.3135C138.753 28.8786 139.498 25.9077 140.861 20.4805H142.613L140.986 26.9822C140.702 28.1157 140.887 29.1806 141.507 29.9806C141.686 30.2122 141.895 30.4097 142.12 30.5687C142.146 30.6047 142.171 30.6408 142.198 30.6758C142.7 31.3234 143.424 31.71 144.136 31.71H162.931C163.261 31.71 163.568 31.5172 163.712 31.2188L164.677 29.2225C164.809 28.95 164.792 28.6339 164.633 28.3771L164.633 28.3771ZM115.013 26.9378C114.712 26.9378 114.441 26.8725 114.201 26.743C113.818 26.0851 113.7 25.1282 113.888 24.1027C114.175 22.535 115.06 21.2522 116.139 20.6881C116.162 21.7988 116.664 22.772 117.49 23.3849C117.694 23.6637 117.941 23.9095 118.225 24.113C117.593 25.8093 116.344 26.9378 115.013 26.9378V26.9378ZM158.598 21.2112C158.474 21.705 158.113 22.704 157.096 23.8475C156.319 24.7222 155.345 25.4714 154.195 26.0825C154.159 24.895 154.699 23.3095 155.819 22.1684C156.742 21.2275 157.929 20.7579 158.682 20.733C158.67 20.8655 158.645 21.0237 158.598 21.2112ZM76.6453 26.901C76.6334 26.7552 76.58 26.6146 76.4875 26.4954C76.3429 26.3091 76.1253 26.2022 75.8904 26.2022H72.3155C71.9062 26.2022 71.551 26.4813 71.4518 26.8808L70.6601 30.0676C70.6031 30.2969 70.6534 30.5353 70.7979 30.7217C70.9292 30.8909 71.1209 30.9936 71.331 31.0112C71.3429 31.1571 71.3963 31.2976 71.4887 31.4168C71.6333 31.6032 71.8509 31.71 72.0859 31.71H75.6608C76.0701 31.71 76.4253 31.431 76.5245 31.0314L77.3162 27.8446C77.3732 27.6152 77.3229 27.3768 77.1783 27.1905C77.047 27.0213 76.8553 26.9186 76.6453 26.901H76.6453ZM113.138 0.985685C113.006 0.816109 112.814 0.714056 112.603 0.698388C112.592 0.551838 112.54 0.410324 112.447 0.29053C112.304 0.105907 112.089 2.07255e-05 111.856 2.07255e-05H108.586C108.242 2.07255e-05 107.943 0.234406 107.859 0.570014L103.513 17.9402L96.1674 1.21771C96.0544 0.960524 95.8274 0.777166 95.5619 0.716792L95.4766 0.522553C95.3371 0.20512 95.0241 4.1451e-05 94.6792 4.1451e-05H91.4466C91.0465 4.1451e-05 90.6988 0.272727 90.6011 0.663196L83.2309 30.1208C83.1768 30.3372 83.224 30.5621 83.3602 30.7381C83.4919 30.9081 83.6882 31.0071 83.9012 31.0137C83.9056 31.1643 83.9561 31.3107 84.051 31.4332C84.1872 31.6092 84.3925 31.7101 84.6142 31.7101H87.9572C88.2848 31.7101 88.5696 31.4868 88.6496 31.167L93.0023 13.7698L100.349 30.4934C100.461 30.7504 100.688 30.9336 100.954 30.9936L101.039 31.1886C101.179 31.5054 101.491 31.7101 101.835 31.7101H105.07C105.47 31.7101 105.817 31.438 105.914 31.0483L113.273 1.6334C113.33 1.40641 113.281 1.17033 113.138 0.985685ZM128.507 12.8093C129.144 13.66 130.156 14.211 131.294 14.211C133.218 14.211 134.784 12.6358 134.784 10.6996C134.784 9.55457 134.236 8.53606 133.391 7.89464C132.753 7.044 131.741 6.49297 130.603 6.49297C128.679 6.49297 127.114 8.06818 127.114 10.0044C127.114 11.1494 127.661 12.1679 128.507 12.8093H128.507Z" fill="#C6213D"/>
<path d="M130.603 12.9811C132.237 12.9811 133.562 11.6484 133.562 10.0044C133.562 8.36038 132.237 7.02766 130.603 7.02766C128.97 7.02766 127.645 8.36038 127.645 10.0044C127.645 11.6484 128.97 12.9811 130.603 12.9811ZM111.856 0.534689H108.586C108.486 0.534689 108.399 0.603021 108.375 0.700514L103.512 20.1367L94.9909 0.738794C94.9364 0.614731 94.8143 0.534689 94.6795 0.534689H91.4469C91.2908 0.534689 91.1548 0.641404 91.1167 0.793675L83.7465 30.2514C83.7175 30.3675 83.8047 30.4801 83.9237 30.4801H87.2666C87.3503 30.4801 87.4233 30.4228 87.4438 30.3411L92.3134 10.8781L100.835 30.2771C100.889 30.4005 101.011 30.4801 101.145 30.4801H104.38C104.535 30.4801 104.67 30.374 104.708 30.2225L112.068 0.807644C112.102 0.669094 111.998 0.534689 111.856 0.534689ZM163.206 27.8064H157.994C163.092 24.3167 163.922 19.6831 162.097 17.3481C160.391 15.1642 155.579 16.0469 152.957 18.2572C150.336 20.4674 149.362 23.5285 149.486 25.9574C149.521 26.648 149.687 27.2657 149.938 27.8064H145.854C145.164 27.8064 145.154 27.381 145.279 26.8821C145.404 26.3832 146.825 20.7026 147.357 18.5772C147.678 17.2943 146.811 16.5769 145.925 16.5769H140.551C140.567 16.414 140.57 16.2472 140.559 16.0776C140.463 14.5694 139.232 13.3614 137.732 13.2997C136.042 13.2301 134.65 14.5884 134.65 16.2739C134.65 17.5661 135.468 18.6657 136.612 19.0771C136.104 21.0982 134.685 26.7456 134.583 27.1547C134.458 27.6536 134.146 27.8064 133.88 27.8064H129.31C128.531 27.8064 128.715 27.2539 128.83 26.7946C128.932 26.3855 131.07 17.8349 131.535 15.9732C131.576 15.8114 131.431 15.6643 131.27 15.7034L127.794 16.5454C127.715 16.5648 127.652 16.627 127.632 16.707L126.728 20.32H122.71C122.126 17.6955 119.985 15.8508 117.113 15.8508C113.238 15.8508 109.649 18.9167 108.95 23.3105C108.292 27.4412 110.624 30.7701 114.499 30.7701C118.311 30.7701 121.706 27.9019 122.67 23.5285H125.925L124.855 27.8064C124.388 29.6738 125.538 30.4801 126.618 30.4801H134.925C136.768 30.4801 137.236 29.2927 137.438 28.4878C137.601 27.8357 139.167 21.5969 139.757 19.2506H143.125C143.299 19.2506 143.427 19.4157 143.385 19.586C143.069 20.8479 141.948 25.3278 141.502 27.1127C140.979 29.2003 142.365 30.4801 143.445 30.4801H162.241C162.37 30.4801 162.487 30.4061 162.544 30.2896L163.509 28.2933C163.618 28.0684 163.455 27.8064 163.206 27.8064H163.206ZM115.013 27.4725C113.229 27.4725 112.252 25.6152 112.675 23.3104C113.124 20.859 114.866 19.1484 116.65 19.1484C116.761 19.1484 116.868 19.1557 116.973 19.1696C116.842 19.4731 116.75 19.7941 116.704 20.1263C116.472 21.7847 117.459 23.1652 118.977 23.4666C118.399 25.887 116.76 27.4725 115.013 27.4725L115.013 27.4725ZM153.494 27.0125C152.465 25.7846 153.007 22.8742 154.75 21.0975C156.121 19.7003 158.236 19.071 159.002 19.8233C159.767 20.5756 158.674 24.7557 153.494 27.0125ZM10.5692 26.7369C10.5062 26.7369 10.4626 26.6738 10.4851 26.6145C11.0239 25.1943 16.0976 11.8247 17.5202 8.17826C19.0053 4.37196 21.9026 4.28008 24.117 4.2779C24.2081 4.27782 24.2726 4.36748 24.244 4.45459L21.8917 11.6137C21.8555 11.7238 21.9369 11.8372 22.0521 11.8372H25.4159C25.4888 11.8372 25.5534 11.7901 25.5763 11.7205L28.8432 0.807457C28.8873 0.673114 28.7879 0.534689 28.6473 0.534689H24.6817C21.8458 0.534689 16.3902 0.73554 13.9104 6.58202C11.4306 12.4285 7.94384 20.8678 6.84564 23.5285C5.78698 26.0933 2.94772 26.6947 1.55592 26.7347C1.46691 26.7372 1.39013 26.797 1.36492 26.8829C1.19762 27.4531 0.746885 29.533 0.538909 30.2417C0.503938 30.3609 0.593138 30.4801 0.716609 30.4801H27.8066C27.9581 30.4801 28.0908 30.3782 28.1308 30.2312L28.9901 27.0741C29.0363 26.9044 28.9094 26.7369 28.7345 26.7369H10.5692L10.5692 26.7369ZM74.2849 0.534689H65.1717C61.1686 0.534689 56.0557 1.61654 53.8376 7.55726C52.8262 10.2663 51.5249 13.7382 50.4026 16.7293H44.3721C44.2237 16.7293 44.0938 16.8299 44.0559 16.9744L43.1963 20.2471C43.1664 20.361 43.2517 20.4725 43.3688 20.4725H48.9975C48.3614 22.1663 47.9462 23.2709 47.9462 23.2709C46.9632 25.7397 45.5727 26.7369 43.4471 26.7369H41.7144C41.6081 26.7369 41.5153 26.8093 41.4888 26.9129L40.6521 30.1874C40.6142 30.3357 40.7255 30.4801 40.8776 30.4801H42.7386C48.1588 30.4801 50.2578 28.1727 51.9146 23.7113C51.9146 23.7113 52.3662 22.5082 53.0225 20.7598C58.1646 21.6661 61.5679 24.7383 63.4546 30.2602C63.4958 30.3809 63.6322 30.4801 63.759 30.4801H66.9872C67.1352 30.4801 67.2643 30.3788 67.3003 30.2344L74.6026 0.944557C74.6545 0.736431 74.4981 0.534668 74.2849 0.534668V0.534689ZM70.0786 4.37007L65.0556 24.393C62.8045 20.2281 58.7517 17.8529 54.417 17.0454C55.5168 14.1162 56.7115 10.9344 57.3957 9.11315C59.2174 4.26423 63.9318 4.27786 65.8094 4.27786H70.0072C70.0552 4.27786 70.0903 4.32327 70.0786 4.37007ZM32.0246 30.4801H35.6649C35.8193 30.4801 35.9539 30.3743 35.9913 30.2236L36.7989 26.973C36.8287 26.8531 36.7385 26.7369 36.6157 26.7369H33.0538C32.8533 26.7369 32.6786 26.8742 32.63 27.0699L31.8414 30.244C31.8116 30.3639 31.9018 30.4801 32.0246 30.4801L32.0246 30.4801ZM71.3953 30.4801H74.9702C75.1349 30.4801 75.2784 30.3673 75.3184 30.2065L76.1101 27.0198C76.1458 26.8761 76.0378 26.7369 75.8906 26.7369H72.3157C72.151 26.7369 72.0075 26.8497 71.9676 27.0105L71.1759 30.1972C71.1402 30.3409 71.2481 30.4801 71.3953 30.4801Z" fill="#DFA232"/>
<path d="M166 31.0078C166 31.4135 165.683 31.7318 165.272 31.7318C164.864 31.7318 164.539 31.4135 164.539 31.0078C164.539 30.6108 164.864 30.2925 165.272 30.2925C165.683 30.2925 166 30.6108 166 31.0078ZM164.721 31.0078C164.721 31.3262 164.955 31.5792 165.276 31.5792C165.588 31.5792 165.818 31.3262 165.818 31.0122C165.818 30.6937 165.588 30.4365 165.272 30.4365C164.955 30.4365 164.721 30.6937 164.721 31.0078ZM165.159 31.3829H164.994V30.6676C165.059 30.6545 165.15 30.6458 165.267 30.6458C165.402 30.6458 165.462 30.6676 165.514 30.6981C165.553 30.7287 165.584 30.7854 165.584 30.8552C165.584 30.9336 165.523 30.9948 165.436 31.0209V31.0296C165.506 31.0557 165.545 31.1082 165.566 31.2041C165.588 31.3131 165.601 31.3568 165.618 31.3829H165.441C165.419 31.3568 165.406 31.2914 165.384 31.2084C165.371 31.1299 165.328 31.0951 165.237 31.0951H165.159V31.3829L165.159 31.3829ZM165.163 30.9773H165.241C165.332 30.9773 165.406 30.9467 165.406 30.8727C165.406 30.8071 165.358 30.7635 165.254 30.7635C165.211 30.7635 165.181 30.7679 165.163 30.7723V30.9773Z" fill="#C6213D"/>
</svg>
