<svg width="171" height="32" viewBox="0 0 171 32" fill="none" xmlns="http://www.w3.org/2000/svg">
<path d="M39.1162 0L43.5866 29.9541L48.8873 15.2695L43.0552 0H50.5788L52.983 8.99204L55.4762 0H63.0001L57.4349 15.2695L63.4452 31.9193H56.0106L53.0716 22.6146L50.312 31.9193H36.6675L36.0442 26.0427H31.7705L31.1468 31.9193H23.9797L28.4761 0H39.1162ZM35.5098 20.0328L34.1299 6.76607H33.4179L32.3046 20.0328H35.5098Z" fill="#BD3537"/>
<path fill-rule="evenodd" clip-rule="evenodd" d="M22.9273 0H14.2904L11.8865 15.4474H11.2179L8.6365 0H0V31.9193H6.72227V11.6634H7.03429L10.1057 31.9193H12.8212L15.8929 11.6634H16.2049V31.9193H22.9273V0Z" fill="#BD3537"/>
<path fill-rule="evenodd" clip-rule="evenodd" d="M92.2514 4.62978L87.3089 0H75.1555V31.9193H82.5012V21.0564H87.3089L92.2514 16.56V4.62978ZM85.2164 6.00994V15.0465H82.5012V6.00994H85.2164Z" fill="#BD3537"/>
<path fill-rule="evenodd" clip-rule="evenodd" d="M107.333 0H96.6921L92.1951 31.9193H99.3635L99.9863 26.0427H104.26L104.884 31.9193H112.096L107.333 0ZM103.727 20.0328H100.521L101.634 6.76607H102.346L103.727 20.0328Z" fill="#BD3537"/>
<path fill-rule="evenodd" clip-rule="evenodd" d="M129.569 0H122.224L119.596 11.5293H119.507L116.881 0H109.535L115.857 18.5636V31.9193H123.202V18.5636L129.569 0Z" fill="#BD3537"/>
<path fill-rule="evenodd" clip-rule="evenodd" d="M149.146 0H142.246V15.3585H142.156L137.437 0H131.293V31.9193H138.193V16.3821H138.282L143.046 31.9193H149.146V0Z" fill="#BD3537"/>
<path fill-rule="evenodd" clip-rule="evenodd" d="M164.968 0H151.433V31.9193H165.146V25.9093H158.779V18.0299H163.988V12.0199H158.779V6.00994H164.968V0Z" fill="#BD3537"/>
<path d="M167.645 32.0003V29.7887H166.966V29.4932H168.597V29.7887H167.918V32.0003H167.645Z" fill="#BD3537"/>
<path d="M168.869 32.0003V29.4932H169.279L169.766 31.2682L169.863 31.6397C169.887 31.5473 169.924 31.4132 169.973 31.2373L170.467 29.4932H170.834V32.0003H170.572V29.8846L169.97 32.0003H169.726L169.132 29.8592V32.0003H168.869Z" fill="#BD3537"/>
<path d="M167.645 32.0003V29.7887H166.966V29.4932H168.597V29.7887H167.918V32.0003H167.645Z" fill="#BD3537"/>
<path d="M168.869 32.0003V29.4932H169.279L169.766 31.2682L169.863 31.6397C169.887 31.5473 169.924 31.4132 169.973 31.2373L170.467 29.4932H170.834V32.0003H170.572V29.8846L169.97 32.0003H169.726L169.132 29.8592V32.0003H168.869Z" fill="#BD3537"/>
</svg>
